{
  "accessors": [
    {
      "bufferView": 2,
      "componentType": 5126,
      "count": 10452,
      "max": [
        4.218348026275635,
        0.9813451766967773,
        0.33652520179748535
      ],
      "min": [
        -2.327610492706299,
        -1.2817096710205078,
        -0.9550087451934814
      ],
      "type": "VEC3"
    },
    {
      "bufferView": 2,
      "byteOffset": 125424,
      "componentType": 5126,
      "count": 10452,
      "max": [
        0.9995203018188477,
        0.9999761581420898,
        0.9999300241470337
      ],
      "min": [
        -0.9994179010391235,
        -0.9999582767486572,
        -0.9999394416809082
      ],
      "type": "VEC3"
    },
    {
      "bufferView": 3,
      "componentType": 5126,
      "count": 10452,
      "max": [
        0.9997805953025818,
        0.9986116886138916,
        0.9990513920783997,
        1.0
      ],
      "min": [
        -0.9999687671661377,
        -0.8411791920661926,
        -0.9994475245475769,
        1.0
      ],
      "type": "VEC4"
    },
    {
      "bufferView": 1,
      "componentType": 5126,
      "count": 10452,
      "max": [
        0.9966804385185242,
        0.9869022369384766
      ],
      "min": [
        0.12722182273864746,
        0.003266453742980957
      ],
      "type": "VEC2"
    },
    {
      "bufferView": 0,
      "componentType": 5125,
      "count": 59256,
      "type": "SCALAR"
    }
  ],
  "asset": {
    "extras": {
      "author": "Sololopenko (https://sketchfab.com/Sololopenko)",
      "license": "CC-BY-4.0 (http://creativecommons.org/licenses/by/4.0/)",
      "source": "https://sketchfab.com/3d-models/hand-c13c018958ab4c8e85a033825dec9c46",
      "title": "Hand"
    },
    "generator": "Sketchfab-12.67.0",
    "version": "2.0"
  },
  "bufferViews": [
    {
      "buffer": 0,
      "byteLength": 237024,
      "name": "floatBufferViews",
      "target": 34963
    },
    {
      "buffer": 0,
      "byteLength": 83616,
      "byteOffset": 237024,
      "byteStride": 8,
      "name": "floatBufferViews",
      "target": 34962
    },
    {
      "buffer": 0,
      "byteLength": 250848,
      "byteOffset": 320640,
      "byteStride": 12,
      "name": "floatBufferViews",
      "target": 34962
    },
    {
      "buffer": 0,
      "byteLength": 167232,
      "byteOffset": 571488,
      "byteStride": 16,
      "name": "floatBufferViews",
      "target": 34962
    }
  ],
  "buffers": [
    {
      "byteLength": 738720,
      "uri": "scene.bin"
    }
  ],
  "images": [
    {
      "uri": "textures/skin_baseColor.png"
    },
    {
      "uri": "textures/skin_metallicRoughness.png"
    },
    {
      "uri": "textures/skin_normal.png"
    }
  ],
  "materials": [
    {
      "doubleSided": true,
      "name": "skin",
      "normalTexture": {
        "index": 2
      },
      "occlusionTexture": {
        "index": 1
      },
      "pbrMetallicRoughness": {
        "baseColorTexture": {
          "index": 0
        },
        "metallicFactor": 0.0,
        "metallicRoughnessTexture": {
          "index": 1
        }
      }
    }
  ],
  "meshes": [
    {
      "name": "Plane.001_skin_0",
      "primitives": [
        {
          "attributes": {
            "NORMAL": 1,
            "POSITION": 0,
            "TANGENT": 2,
            "TEXCOORD_0": 3
          },
          "indices": 4,
          "material": 0,
          "mode": 4
        }
      ]
    }
  ],
  "nodes": [
    {
      "children": [
        1
      ],
      "matrix": [
        0.0012747143628075719,
        0.0,
        0.0,
        0.0,
        0.0,
        2.830434470818703e-19,
        -0.0012747143628075719,
        0.0,
        0.0,
        0.0012747143628075719,
        2.830434470818703e-19,
        0.0,
        0.0,
        0.0,
        0.0,
        1.0
      ],
      "name": "Sketchfab_model"
    },
    {
      "children": [
        2
      ],
      "matrix": [
        1.0,
        0.0,
        0.0,
        0.0,
        0.0,
        0.0,
        1.0,
        0.0,
        0.0,
        -1.0,
        0.0,
        0.0,
        0.0,
        0.0,
        0.0,
        1.0
      ],
      "name": "044cf86c82a242c8a8852f21db2054ac.fbx"
    },
    {
      "children": [
        3
      ],
      "name": "RootNode"
    },
    {
      "children": [
        4
      ],
      "matrix": [
        -22.85067474556234,
        -31.367232101614093,
        -92.16260054835126,
        0.0,
        -3.5404186802367565,
        -94.33690435494273,
        32.98505589346508,
        0.0,
        -97.28982852602554,
        10.800248114876254,
        20.446084714556257,
        0.0,
        -315.3926696777344,
        172.1574249267578,
        100.85305786132813,
        1.0
      ],
      "name": "Plane.001"
    },
    {
      "mesh": 0,
      "name": "Plane.001_skin_0"
    }
  ],
  "samplers": [
    {
      "magFilter": 9729,
      "minFilter": 9987,
      "wrapS": 10497,
      "wrapT": 10497
    }
  ],
  "scene": 0,
  "scenes": [
    {
      "name": "Sketchfab_Scene",
      "nodes": [
        0
      ]
    }
  ],
  "textures": [
    {
      "sampler": 0,
      "source": 0
    },
    {
      "sampler": 0,
      "source": 1
    },
    {
      "sampler": 0,
      "source": 2
    }
  ]
}
